{"asset":{"version":"2.0"},"accessors":[{"bufferView":0,"componentType":5126,"count":11,"type":"VEC3","max":[1333998.4561492582,-4654044.842733646,4138300.2386952764],"min":[979148.6372013139,-5663833.047541919,2755309.4753492535]}],"bufferViews":[{"buffer":0,"byteOffset":0,"byteLength":132,"target":34962}],"buffers":[{"byteLength":132,"type":"arraybuffer","uri":"data:application/octet-stream;base64,"}],"meshes":[{"primitives":[{"attributes":{"POSITION":0},"mode":0}]}],"nodes":[{"matrix":[1,0,0,0,0,0,-1,0,0,1,0,0,0,0,0,1],"children":[1]},{"mesh":0}],"scenes":[{"nodes":[0]}]}